<svg width="16" height="16" viewBox="0 0 457 472" fill="none" xmlns="http://www.w3.org/2000/svg">
    <path
        d="M455.133 345.285C455.833 350.105 455.303 354.955 454.433 359.735C450.743 379.945 442.583 398.375 431.793 415.705C422.403 430.815 411.143 444.325 396.863 455.125C387.783 462.005 377.893 467.325 366.673 469.795C364.143 470.345 361.543 470.645 358.943 470.735C346.043 471.235 333.233 471.045 320.743 466.895C293.833 457.925 276.043 440.045 267.543 412.955C263.093 398.725 261.543 384.035 262.153 369.215C263.043 347.975 264.203 326.715 265.643 305.495C266.883 287.025 268.633 268.585 270.253 250.115C271.583 234.835 273.043 219.575 274.463 204.295C276.513 182.245 278.563 160.205 280.643 138.175C281.643 127.525 282.653 116.845 283.673 106.195C284.153 101.155 282.803 99.4451 277.843 99.4451C249.053 99.4251 220.233 99.4251 191.443 99.4451C186.883 99.4451 185.593 100.795 185.283 105.335C183.493 132.625 181.943 159.955 179.823 187.215C177.723 214.195 175.213 241.135 172.513 268.045C170.593 287.185 168.413 306.315 165.633 325.345C161.353 354.555 156.003 383.565 147.643 411.935C144.543 422.475 141.003 432.915 135.613 442.565C128.733 454.855 119.063 464.105 105.443 468.565C102.063 469.675 98.4134 470.395 94.8534 470.615C86.6234 471.135 78.3334 471.665 70.2734 469.285C55.8034 465.005 44.5635 456.735 38.9035 442.285C34.3635 430.655 35.3435 419.035 40.0835 407.625C44.4235 397.125 50.1634 387.435 56.8034 378.285C69.5734 360.715 81.8834 342.875 92.2134 323.715C107.453 295.425 118.953 265.765 125.633 234.235C130.743 210.155 134.653 185.885 137.373 161.435C139.443 142.885 141.213 124.305 143.093 105.755C143.533 101.385 141.933 99.4251 137.593 99.4951C123.273 99.6951 108.953 98.7951 94.6535 100.475C75.7934 102.705 59.2035 109.405 45.9335 123.505C35.5635 134.525 26.8335 146.735 18.6735 159.415C17.3435 161.485 16.0334 163.585 14.4434 165.435C12.0634 168.205 8.92345 169.645 5.23345 169.475C1.80345 169.325 0.143451 167.775 0.0334505 164.385C-0.0565495 161.805 -0.00654918 159.105 0.713451 156.655C7.78345 132.405 16.8835 109.025 30.3735 87.5251C38.0835 75.2151 46.8935 63.7951 57.6835 53.9551C69.0735 43.5651 82.5434 37.9151 97.6034 35.4051C116.943 32.1951 136.433 31.4351 155.993 31.4351C238.923 31.4351 321.843 31.4751 404.773 31.3251C410.493 31.3251 416.323 30.3451 421.863 28.8851C430.443 26.6151 436.973 21.1551 441.773 13.6951C444.133 10.0451 446.383 6.33505 448.603 2.60505C449.673 0.795054 451.093 -0.0749466 453.213 0.00505338C455.223 0.0950534 456.553 0.815053 456.683 3.01505C456.703 3.45505 456.773 3.88505 456.773 4.30505C457.323 28.3651 452.843 51.2351 440.623 72.215C434.513 82.6951 426.343 91.1451 414.973 96.0051C409.753 98.2351 404.343 99.5451 398.553 99.4951C383.923 99.3651 369.323 99.4551 354.703 99.4551C353.703 99.4551 352.673 99.4151 351.673 99.4751C348.223 99.675 346.983 100.745 346.613 104.125C346.263 107.295 346.023 110.475 345.823 113.645C344.123 139.335 342.413 165.055 340.733 190.765C338.963 217.915 337.023 245.055 335.563 272.225C334.513 291.735 334.293 311.295 335.413 330.815C336.063 342.515 337.613 354.105 340.373 365.565C344.503 382.725 356.023 392.025 372.263 396.325C381.193 398.685 390.273 399.225 399.243 396.285C407.053 393.735 413.803 389.275 419.963 383.905C428.983 376.065 436.383 366.815 443.473 357.275C445.813 354.135 448.143 351.015 450.593 347.955C451.533 346.775 452.793 345.835 453.913 344.785C454.343 344.915 454.733 345.115 455.133 345.285Z"
        fill="#ffc107" />
</svg>